<?xml version="1.0" standalone="no"?>
<!DOCTYPE svg PUBLIC "-//W3C//DTD SVG 20010904//EN"
 "http://www.w3.org/TR/2001/REC-SVG-20010904/DTD/svg10.dtd">
<svg version="1.0" xmlns="http://www.w3.org/2000/svg"
 width="512.000000pt" height="512.000000pt" viewBox="0 0 512.000000 512.000000"
 preserveAspectRatio="xMidYMid meet">

<g transform="translate(0.000000,512.000000) scale(0.100000,-0.100000)"
fill="#fff" stroke="none">
<path d="M2398 4793 l-167 -3 -3 -263 c-3 -244 -4 -264 -23 -289 -71 -94 -210
-82 -262 22 -22 42 -23 55 -23 287 l0 243 -325 0 -324 0 -3 -259 c-3 -244 -4
-261 -24 -287 -38 -51 -70 -68 -129 -68 -59 0 -91 17 -129 68 -20 26 -21 43
-24 287 l-3 259 -242 0 c-269 0 -315 -7 -421 -63 -80 -42 -185 -146 -224 -222
-62 -124 -64 -141 -69 -492 l-5 -323 2561 0 2561 0 0 308 c0 346 -9 409 -72
521 -45 80 -149 179 -230 219 -106 52 -173 62 -430 62 l-227 0 -3 -259 c-3
-245 -4 -261 -24 -288 -71 -96 -196 -97 -254 -1 -19 31 -20 51 -20 291 l0 257
-335 0 -335 0 0 -252 c0 -221 -2 -257 -18 -287 -24 -48 -62 -73 -119 -78 -63
-6 -110 20 -140 77 -22 42 -23 52 -23 292 l0 248 -162 -2 c-90 -1 -238 -4
-330 -5z"/>
<path d="M810 3012 c-19 -9 -45 -32 -57 -51 -23 -34 -23 -36 -23 -401 0 -511
-41 -470 465 -470 390 0 397 1 442 69 23 34 23 36 23 401 0 511 41 470 -465
470 -313 0 -354 -2 -385 -18z m560 -452 l0 -170 -175 0 -175 0 0 170 0 170
175 0 175 0 0 -170z"/>
<path d="M3540 3012 c-19 -9 -45 -32 -57 -51 -23 -34 -23 -36 -23 -401 0 -513
-42 -472 477 -468 347 3 363 4 389 24 15 11 37 33 48 48 20 27 21 39 21 396 0
358 -1 369 -21 397 -11 15 -36 38 -54 51 -33 22 -36 22 -389 22 -319 0 -360
-2 -391 -18z m560 -452 l0 -170 -175 0 -175 0 0 170 0 170 175 0 175 0 0 -170z"/>
<path d="M2373 1740 c-173 -4 -194 -7 -220 -26 -62 -45 -63 -54 -63 -439 0
-389 1 -397 67 -441 31 -20 47 -22 388 -29 l356 -7 46 23 c83 43 83 41 83 452
0 351 -1 360 -22 398 -14 25 -37 46 -63 59 -45 22 -122 23 -572 10z m230 -297
l127 -6 0 -169 0 -168 -170 0 -170 0 0 175 0 175 43 0 c23 0 99 -3 170 -7z"/>
<path d="M3575 1741 c-17 -4 -43 -16 -58 -26 -56 -37 -57 -42 -57 -442 0 -347
1 -370 20 -400 41 -67 45 -68 445 -68 344 0 362 1 395 20 19 12 43 36 55 55
19 33 20 51 20 395 0 344 -1 362 -20 395 -12 19 -36 43 -55 55 -33 19 -53 20
-375 22 -187 1 -354 -2 -370 -6z m525 -466 l0 -175 -172 2 -173 3 -3 160 c-1
87 0 165 2 172 4 10 46 13 176 13 l170 0 0 -175z"/>
<path d="M796 1721 c-15 -10 -37 -32 -47 -47 -18 -27 -19 -53 -19 -399 0 -349
1 -372 20 -402 38 -63 41 -63 446 -63 350 0 368 1 399 20 64 39 65 49 65 447
0 401 -1 407 -71 445 -31 16 -64 18 -399 18 -341 0 -367 -1 -394 -19z m574
-446 l0 -175 -175 0 -175 0 0 175 0 175 175 0 175 0 0 -175z"/>
</g>
</svg>
