<?xml version="1.0" encoding="UTF-8"?>
<svg width="700pt" height="700pt" version="1.1" viewBox="0 0 700 700" xmlns="http://www.w3.org/2000/svg" xmlns:xlink="http://www.w3.org/1999/xlink">
 <defs>
  <symbol id="u" overflow="visible">
   <path fill="transparent" d="m7.0312-0.42188c-0.36719 0.1875-0.74609 0.32812-1.1406 0.42188-0.39844 0.10156-0.80859 0.15625-1.2344 0.15625-1.2734 0-2.2812-0.35156-3.0312-1.0625-0.74219-0.71875-1.1094-1.6875-1.1094-2.9062s0.36719-2.1797 1.1094-2.8906c0.75-0.71875 1.7578-1.0781 3.0312-1.0781 0.42578 0 0.83594 0.046875 1.2344 0.14062 0.39453 0.09375 0.77344 0.23438 1.1406 0.42188v1.5938c-0.375-0.25-0.74219-0.42969-1.0938-0.54688-0.35547-0.125-0.72656-0.1875-1.1094-0.1875-0.71094 0-1.2656 0.23047-1.6719 0.6875-0.39844 0.44922-0.59375 1.0703-0.59375 1.8594 0 0.79297 0.19531 1.4141 0.59375 1.8594 0.40625 0.44922 0.96094 0.67188 1.6719 0.67188 0.38281 0 0.75391-0.054688 1.1094-0.17188 0.35156-0.11328 0.71875-0.29688 1.0938-0.54688z"/>
  </symbol>
  <symbol id="b" overflow="visible">
   <path fill="transparent" d="m5.1406-4.1719c-0.15625-0.070313-0.32031-0.125-0.48438-0.15625-0.15625-0.039063-0.3125-0.0625-0.46875-0.0625-0.48047 0-0.84375 0.15234-1.0938 0.45312-0.25 0.30469-0.375 0.73438-0.375 1.2969v2.6406h-1.8438v-5.7344h1.8438v0.9375c0.22656-0.375 0.49219-0.64453 0.79688-0.8125 0.3125-0.17578 0.67969-0.26562 1.1094-0.26562 0.0625 0 0.12891 0.007812 0.20312 0.015625 0.070313 0 0.17578 0.011719 0.3125 0.03125z"/>
  </symbol>
  <symbol id="a" overflow="visible">
   <path fill="transparent" d="m6.6094-2.875v0.51562h-4.2969c0.050781 0.42969 0.20703 0.75 0.46875 0.96875 0.26953 0.21875 0.64453 0.32812 1.125 0.32812 0.38281 0 0.77344-0.054688 1.1719-0.17188 0.40625-0.11328 0.82031-0.28906 1.25-0.53125v1.4219c-0.42969 0.15625-0.85938 0.27734-1.2969 0.35938-0.4375 0.09375-0.87109 0.14062-1.2969 0.14062-1.043 0-1.8516-0.26562-2.4219-0.79688-0.57422-0.53125-0.85938-1.2695-0.85938-2.2188 0-0.9375 0.28125-1.6719 0.84375-2.2031 0.5625-0.53906 1.3359-0.8125 2.3281-0.8125 0.90625 0 1.6289 0.27344 2.1719 0.8125 0.53906 0.54297 0.8125 1.2734 0.8125 2.1875zm-1.8906-0.60938c0-0.35156-0.10547-0.63281-0.3125-0.84375-0.19922-0.21875-0.46094-0.32812-0.78125-0.32812-0.35547 0-0.64844 0.10547-0.875 0.3125-0.21875 0.19922-0.35547 0.48438-0.40625 0.85938z"/>
  </symbol>
  <symbol id="e" overflow="visible">
   <path fill="transparent" d="m3.4531-2.5781c-0.38672 0-0.67969 0.070313-0.875 0.20312-0.1875 0.125-0.28125 0.3125-0.28125 0.5625 0 0.23047 0.078125 0.41406 0.23438 0.54688 0.15625 0.13672 0.36719 0.20312 0.64062 0.20312 0.35156 0 0.64453-0.125 0.875-0.375 0.23828-0.25 0.35938-0.5625 0.35938-0.9375v-0.20312zm2.7969-0.6875v3.2656h-1.8438v-0.84375c-0.25 0.34375-0.53125 0.60156-0.84375 0.76562-0.30469 0.15625-0.67188 0.23438-1.1094 0.23438-0.59375 0-1.0781-0.17188-1.4531-0.51562-0.36719-0.35156-0.54688-0.80469-0.54688-1.3594 0-0.67578 0.22656-1.1719 0.6875-1.4844 0.46875-0.3125 1.1953-0.46875 2.1875-0.46875h1.0781v-0.14062c0-0.28906-0.11719-0.50391-0.34375-0.64062-0.23047-0.13281-0.58984-0.20312-1.0781-0.20312-0.38672 0-0.75 0.042969-1.0938 0.125-0.33594 0.074219-0.64844 0.1875-0.9375 0.34375v-1.3906c0.39453-0.09375 0.78906-0.16406 1.1875-0.21875 0.39453-0.050781 0.78906-0.078125 1.1875-0.078125 1.0312 0 1.7734 0.21094 2.2344 0.625 0.45703 0.40625 0.6875 1.0703 0.6875 1.9844z"/>
  </symbol>
  <symbol id="c" overflow="visible">
   <path fill="transparent" d="m2.875-7.3594v1.625h1.8906v1.3125h-1.8906v2.4375c0 0.26172 0.050781 0.4375 0.15625 0.53125 0.11328 0.09375 0.32812 0.14062 0.64062 0.14062h0.9375v1.3125h-1.5625c-0.73047 0-1.2461-0.14844-1.5469-0.45312-0.30469-0.30078-0.45312-0.8125-0.45312-1.5312v-2.4375h-0.90625v-1.3125h0.90625v-1.625z"/>
  </symbol>
  <symbol id="k" overflow="visible">
   <path fill="transparent" d="m4.7812-4.8906v-3.0781h1.8438v7.9688h-1.8438v-0.82812c-0.25 0.33594-0.53125 0.58594-0.84375 0.75-0.30469 0.15625-0.65234 0.23438-1.0469 0.23438-0.71094 0-1.293-0.28125-1.75-0.84375-0.44922-0.5625-0.67188-1.2852-0.67188-2.1719 0-0.88281 0.22266-1.6094 0.67188-2.1719 0.45703-0.5625 1.0391-0.84375 1.75-0.84375 0.39453 0 0.74219 0.085938 1.0469 0.25 0.3125 0.15625 0.59375 0.40234 0.84375 0.73438zm-1.2031 3.7031c0.38281 0 0.67969-0.14062 0.89062-0.42188 0.20703-0.28906 0.3125-0.70703 0.3125-1.25 0-0.55078-0.10547-0.96875-0.3125-1.25-0.21094-0.28906-0.50781-0.4375-0.89062-0.4375-0.39844 0-0.69922 0.14844-0.90625 0.4375-0.19922 0.28125-0.29688 0.69922-0.29688 1.25 0 0.54297 0.097656 0.96094 0.29688 1.25 0.20703 0.28125 0.50781 0.42188 0.90625 0.42188z"/>
  </symbol>
  <symbol id="j" overflow="visible">
   <path fill="transparent" d="m3.9375-1.1875c0.38281 0 0.67969-0.14062 0.89062-0.42188 0.20703-0.28906 0.3125-0.70703 0.3125-1.25 0-0.55078-0.10547-0.96875-0.3125-1.25-0.21094-0.28906-0.50781-0.4375-0.89062-0.4375-0.39844 0-0.69922 0.14844-0.90625 0.4375-0.21094 0.29297-0.3125 0.71094-0.3125 1.25 0 0.54297 0.10156 0.96094 0.3125 1.25 0.20703 0.28125 0.50781 0.42188 0.90625 0.42188zm-1.2188-3.7031c0.25-0.33203 0.52344-0.57812 0.82812-0.73438 0.3125-0.16406 0.66406-0.25 1.0625-0.25 0.70703 0 1.2852 0.28125 1.7344 0.84375 0.45703 0.5625 0.6875 1.2891 0.6875 2.1719 0 0.88672-0.23047 1.6094-0.6875 2.1719-0.44922 0.5625-1.0273 0.84375-1.7344 0.84375-0.39844 0-0.75-0.078125-1.0625-0.23438-0.30469-0.16406-0.57812-0.41406-0.82812-0.75v0.82812h-1.8438v-7.9688h1.8438z"/>
  </symbol>
  <symbol id="i" overflow="visible">
   <path fill="transparent" d="m0.125-5.7344h1.8281l1.5469 3.8906 1.3125-3.8906h1.8281l-2.4062 6.2812c-0.24219 0.63281-0.52344 1.0781-0.84375 1.3281-0.32422 0.25781-0.75 0.39062-1.2812 0.39062h-1.0625v-1.2031h0.57812c0.3125 0 0.53516-0.054688 0.67188-0.15625 0.14453-0.09375 0.25391-0.27344 0.32812-0.53125l0.0625-0.15625z"/>
  </symbol>
  <symbol id="h" overflow="visible">
   <path fill="transparent" d="m0.96875-7.6406h1.9688v2.7812l2.8438-2.7812h2.2812l-3.6875 3.6094 4.0625 4.0312h-2.4688l-3.0312-3.0156v3.0156h-1.9688z"/>
  </symbol>
  <symbol id="g" overflow="visible">
   <path fill="transparent" d="m6.6406-3.4844v3.4844h-1.8438v-2.6719c0-0.5-0.011719-0.84375-0.03125-1.0312-0.023437-0.1875-0.058594-0.32031-0.10938-0.40625-0.074219-0.125-0.17188-0.21875-0.29688-0.28125s-0.26562-0.09375-0.42188-0.09375c-0.375 0-0.67188 0.14844-0.89062 0.4375-0.21875 0.29297-0.32812 0.69922-0.32812 1.2188v2.8281h-1.8438v-5.7344h1.8438v0.84375c0.26953-0.33203 0.5625-0.57812 0.875-0.73438 0.3125-0.16406 0.65625-0.25 1.0312-0.25 0.65625 0 1.1562 0.20312 1.5 0.60938s0.51562 1 0.51562 1.7812z"/>
  </symbol>
  <symbol id="t" overflow="visible">
   <path d="m4.7812-0.96875c-0.25 0.33594-0.53125 0.57812-0.84375 0.73438-0.30469 0.15625-0.65234 0.23438-1.0469 0.23438-0.69922 0-1.2773-0.27344-1.7344-0.82812-0.46094-0.55078-0.6875-1.2539-0.6875-2.1094 0-0.85156 0.22656-1.5508 0.6875-2.0938 0.45703-0.55078 1.0352-0.82812 1.7344-0.82812 0.39453 0 0.74219 0.078125 1.0469 0.23438 0.3125 0.15625 0.59375 0.40234 0.84375 0.73438v-0.84375h1.8438v5.1562c0 0.91406-0.29297 1.6172-0.875 2.1094-0.58594 0.48828-1.4297 0.73438-2.5312 0.73438-0.35547 0-0.70312-0.03125-1.0469-0.09375-0.33594-0.054687-0.66797-0.13281-1-0.23438v-1.4375c0.32031 0.1875 0.63281 0.32031 0.9375 0.40625 0.3125 0.09375 0.625 0.14062 0.9375 0.14062 0.59375 0 1.0312-0.13281 1.3125-0.39062 0.28125-0.26172 0.42188-0.67188 0.42188-1.2344zm-1.2031-3.5781c-0.38672 0-0.68359 0.14062-0.89062 0.42188-0.21094 0.28125-0.3125 0.67969-0.3125 1.1875 0 0.53125 0.097656 0.93359 0.29688 1.2031 0.20703 0.27344 0.50781 0.40625 0.90625 0.40625 0.375 0 0.66406-0.14062 0.875-0.42188 0.21875-0.28125 0.32812-0.67578 0.32812-1.1875 0-0.50781-0.10938-0.90625-0.32812-1.1875-0.21094-0.28125-0.5-0.42188-0.875-0.42188z"/>
  </symbol>
  <symbol id="s" overflow="visible">
   <path fill="transparent" d="m0.875-5.7344h1.8438v5.7344h-1.8438zm0-2.2344h1.8438v1.5h-1.8438z"/>
  </symbol>
  <symbol id="f" overflow="visible">
   <path fill="transparent" d="m4.6562-7.9688v1.2031h-1.0156c-0.26172 0-0.44531 0.046875-0.54688 0.14062-0.10547 0.09375-0.15625 0.25781-0.15625 0.48438v0.40625h1.5781v1.3125h-1.5781v4.4219h-1.8281v-4.4219h-0.90625v-1.3125h0.90625v-0.40625c0-0.61328 0.17188-1.0703 0.51562-1.375 0.35156-0.30078 0.89453-0.45312 1.625-0.45312z"/>
  </symbol>
  <symbol id="d" overflow="visible">
   <path fill="transparent" d="m3.6094-4.5625c-0.40625 0-0.71875 0.14844-0.9375 0.4375-0.21094 0.29297-0.3125 0.71484-0.3125 1.2656 0 0.55469 0.10156 0.97656 0.3125 1.2656 0.21875 0.29297 0.53125 0.4375 0.9375 0.4375 0.39453 0 0.69531-0.14453 0.90625-0.4375 0.21875-0.28906 0.32812-0.71094 0.32812-1.2656 0-0.55078-0.10938-0.97266-0.32812-1.2656-0.21094-0.28906-0.51172-0.4375-0.90625-0.4375zm0-1.3125c0.98828 0 1.7578 0.26562 2.3125 0.79688 0.55078 0.53125 0.82812 1.2734 0.82812 2.2188 0 0.9375-0.27734 1.6797-0.82812 2.2188-0.55469 0.53125-1.3242 0.79688-2.3125 0.79688-0.99219 0-1.7656-0.26562-2.3281-0.79688-0.55469-0.53906-0.82812-1.2812-0.82812-2.2188 0-0.94531 0.27344-1.6875 0.82812-2.2188 0.5625-0.53125 1.3359-0.79688 2.3281-0.79688z"/>
  </symbol>
  <symbol id="r" overflow="visible">
   <path fill="transparent" d="m6.1875-4.7812c0.23828-0.35156 0.51562-0.625 0.82812-0.8125 0.32031-0.1875 0.67578-0.28125 1.0625-0.28125 0.65625 0 1.1562 0.20312 1.5 0.60938s0.51562 1 0.51562 1.7812v3.4844h-1.8438v-2.9844-0.14062c0.007812-0.050781 0.015625-0.11719 0.015625-0.20312 0-0.40625-0.0625-0.69531-0.1875-0.875-0.11719-0.1875-0.30859-0.28125-0.57812-0.28125-0.34375 0-0.60938 0.14844-0.79688 0.4375-0.1875 0.28125-0.28906 0.69531-0.29688 1.2344v2.8125h-1.8438v-2.9844c0-0.63281-0.058594-1.0391-0.17188-1.2188-0.10547-0.1875-0.29688-0.28125-0.57812-0.28125-0.35547 0-0.625 0.14844-0.8125 0.4375-0.1875 0.28125-0.28125 0.6875-0.28125 1.2188v2.8281h-1.8438v-5.7344h1.8438v0.84375c0.21875-0.32031 0.47266-0.56641 0.76562-0.73438 0.28906-0.16406 0.61328-0.25 0.96875-0.25 0.39453 0 0.74219 0.10156 1.0469 0.29688 0.30078 0.1875 0.53125 0.45312 0.6875 0.79688z"/>
  </symbol>
  <symbol id="q" overflow="visible">
   <path d="m6.6406-3.4844v3.4844h-1.8438v-2.6562c0-0.50781-0.011719-0.85938-0.03125-1.0469-0.023437-0.1875-0.058594-0.32031-0.10938-0.40625-0.074219-0.125-0.17188-0.21875-0.29688-0.28125s-0.26562-0.09375-0.42188-0.09375c-0.375 0-0.67188 0.14844-0.89062 0.4375-0.21875 0.29297-0.32812 0.69922-0.32812 1.2188v2.8281h-1.8438v-7.9688h1.8438v3.0781c0.26953-0.33203 0.5625-0.57812 0.875-0.73438 0.3125-0.16406 0.65625-0.25 1.0312-0.25 0.65625 0 1.1562 0.20312 1.5 0.60938s0.51562 1 0.51562 1.7812z"/>
  </symbol>
  <symbol id="p" overflow="visible">
   <path fill="transparent" d="m0.96875-7.6406h2.1875l2.7812 5.2344v-5.2344h1.875v7.6406h-2.2031l-2.7812-5.25v5.25h-1.8594z"/>
  </symbol>
  <symbol id="o" overflow="visible">
   <path fill="transparent" d="m0.8125-2.2344v-3.5h1.8438v0.57812 1.1719 0.9375c0 0.46094 0.007812 0.79297 0.03125 1 0.019531 0.19922 0.0625 0.34375 0.125 0.4375 0.070312 0.11719 0.16406 0.21094 0.28125 0.28125 0.125 0.0625 0.26562 0.09375 0.42188 0.09375 0.38281 0 0.6875-0.14453 0.90625-0.4375 0.21875-0.30078 0.32812-0.71094 0.32812-1.2344v-2.8281h1.8281v5.7344h-1.8281v-0.82812c-0.27344 0.33594-0.5625 0.58594-0.875 0.75-0.3125 0.15625-0.65625 0.23438-1.0312 0.23438-0.65625 0-1.1641-0.20312-1.5156-0.60938-0.34375-0.40625-0.51562-1-0.51562-1.7812z"/>
  </symbol>
  <symbol id="n" overflow="visible">
   <path fill="transparent" d="m0.96875-7.6406h3.2656c0.96875 0 1.7109 0.21875 2.2344 0.65625 0.51953 0.42969 0.78125 1.0391 0.78125 1.8281 0 0.80469-0.26172 1.4219-0.78125 1.8594-0.52344 0.42969-1.2656 0.64062-2.2344 0.64062h-1.2969v2.6562h-1.9688zm1.9688 1.4219v2.1406h1.0938c0.375 0 0.66406-0.09375 0.875-0.28125 0.20703-0.1875 0.3125-0.45312 0.3125-0.79688 0-0.33203-0.10547-0.59375-0.3125-0.78125-0.21094-0.1875-0.5-0.28125-0.875-0.28125z"/>
  </symbol>
  <symbol id="m" overflow="visible">
   <path fill="transparent" d="m0.875-5.7344h1.8438v5.625c0 0.76953-0.1875 1.3594-0.5625 1.7656-0.36719 0.40625-0.89844 0.60938-1.5938 0.60938h-0.90625v-1.2031h0.3125c0.34375 0 0.57812-0.078125 0.70312-0.23438 0.13281-0.15625 0.20312-0.46875 0.20312-0.9375zm0-2.2344h1.8438v1.5h-1.8438z"/>
  </symbol>
  <symbol id="l" overflow="visible">
   <path fill="transparent" d="m5.5156-5.5469v1.4844c-0.25-0.16406-0.5-0.28906-0.75-0.375-0.25-0.082031-0.51172-0.125-0.78125-0.125-0.51172 0-0.91406 0.15234-1.2031 0.45312-0.28125 0.29297-0.42188 0.71094-0.42188 1.25 0 0.53125 0.14062 0.94922 0.42188 1.25 0.28906 0.30469 0.69141 0.45312 1.2031 0.45312 0.28125 0 0.55078-0.039062 0.8125-0.125 0.25781-0.09375 0.5-0.22266 0.71875-0.39062v1.5c-0.29297 0.10547-0.58594 0.17969-0.875 0.23438-0.29297 0.0625-0.58984 0.09375-0.89062 0.09375-1.0312 0-1.8398-0.26562-2.4219-0.79688-0.58594-0.53125-0.875-1.2695-0.875-2.2188 0-0.94531 0.28906-1.6875 0.875-2.2188 0.58203-0.53125 1.3906-0.79688 2.4219-0.79688 0.30078 0 0.59766 0.027344 0.89062 0.078125 0.28906 0.054687 0.58203 0.13672 0.875 0.25z"/>
  </symbol>
 </defs>
 <g>
  <path fill="#fff"  d="m423.41 37.754c-197.15 14.684-287.34 251.68-159.4 396.41-44.047-8.3906-83.895-29.363-113.26-60.824l-104.87 44.047 48.238-142.62c-52.434-195.05 165.69-350.26 329.29-237z" fill-rule="evenodd"/>
  <path fill="#fff" d="m438.09 56.629c119.55 0 216.03 98.578 216.03 218.13 0 65.02-27.266 123.75-73.41 163.59l27.266 121.65-127.94-71.312c-134.23 27.266-255.88-77.602-255.88-213.93 0-119.55 96.48-218.13 213.93-218.13zm58.727 262.17c-35.656 48.238-113.26 88.09-163.59 39.852l54.531-69.215 27.266 23.07 54.531-71.312-27.266-20.973 54.531-69.215c56.629 37.754 37.754 121.65 0 167.79z" fill-rule="evenodd"/>
  <use x="45.878906" y="591.460938" xlink:href="#u"/>
  <use x="53.578125" y="591.460938" xlink:href="#b"/>
  <use x="58.75" y="591.460938" xlink:href="#a"/>
  <use x="65.859375" y="591.460938" xlink:href="#e"/>
  <use x="72.9375" y="591.460938" xlink:href="#c"/>
  <use x="77.949219" y="591.460938" xlink:href="#a"/>
  <use x="85.0625" y="591.460938" xlink:href="#k"/>
  <use x="96.21875" y="591.460938" xlink:href="#j"/>
  <use x="103.726562" y="591.460938" xlink:href="#i"/>
  <use x="114.214844" y="591.460938" xlink:href="#h"/>
  <use x="122.339844" y="591.460938" xlink:href="#e"/>
  <use x="129.417969" y="591.460938" xlink:href="#g"/>
  <use x="136.882812" y="591.460938" xlink:href="#t"/>
  <use x="144.390625" y="591.460938" xlink:href="#b"/>
  <use x="149.5625" y="591.460938" xlink:href="#s"/>
  <use x="153.15625" y="591.460938" xlink:href="#f"/>
  <use x="45.878906" y="601.949219" xlink:href="#f"/>
  <use x="50.441406" y="601.949219" xlink:href="#b"/>
  <use x="55.613281" y="601.949219" xlink:href="#d"/>
  <use x="62.820312" y="601.949219" xlink:href="#r"/>
  <use x="77.398438" y="601.949219" xlink:href="#c"/>
  <use x="82.410156" y="601.949219" xlink:href="#q"/>
  <use x="89.875" y="601.949219" xlink:href="#a"/>
  <use x="100.640625" y="601.949219" xlink:href="#p"/>
  <use x="109.414062" y="601.949219" xlink:href="#d"/>
  <use x="116.621094" y="601.949219" xlink:href="#o"/>
  <use x="124.085938" y="601.949219" xlink:href="#g"/>
  <use x="135.203125" y="601.949219" xlink:href="#n"/>
  <use x="142.890625" y="601.949219" xlink:href="#b"/>
  <use x="148.0625" y="601.949219" xlink:href="#d"/>
  <use x="155.265625" y="601.949219" xlink:href="#m"/>
  <use x="158.859375" y="601.949219" xlink:href="#a"/>
  <use x="165.972656" y="601.949219" xlink:href="#l"/>
  <use x="172.1875" y="601.949219" xlink:href="#c"/>
 </g>
</svg>
