<?xml version="1.0" encoding="UTF-8"?>
<svg width="700pt" height="700pt" version="1.1" viewBox="0 0 700 700" xmlns="http://www.w3.org/2000/svg" xmlns:xlink="http://www.w3.org/1999/xlink">
 <defs>
  <symbol id="m" overflow="visible">
   <path fill="transparent" d="m29.312-1.75c-1.5117 0.78125-3.0898 1.3711-4.7344 1.7656-1.6367 0.40625-3.3398 0.60938-5.1094 0.60938-5.3125 0-9.5273-1.4844-12.641-4.4531-3.1055-2.9688-4.6562-7-4.6562-12.094s1.5508-9.125 4.6562-12.094c3.1133-2.9688 7.3281-4.4531 12.641-4.4531 1.7695 0 3.4727 0.19922 5.1094 0.59375 1.6445 0.39844 3.2227 0.99219 4.7344 1.7812v6.5938c-1.5312-1.0391-3.0391-1.8008-4.5156-2.2812-1.4805-0.48828-3.0391-0.73438-4.6719-0.73438-2.9375 0-5.2461 0.94531-6.9219 2.8281-1.6797 1.875-2.5156 4.4648-2.5156 7.7656 0 3.293 0.83594 5.8828 2.5156 7.7656 1.6758 1.875 3.9844 2.8125 6.9219 2.8125 1.6328 0 3.1914-0.23828 4.6719-0.71875 1.4766-0.48828 2.9844-1.2539 4.5156-2.2969z"/>
  </symbol>
  <symbol id="e" overflow="visible">
   <path fill="transparent" d="m21.453-17.406c-0.67969-0.3125-1.3516-0.53906-2.0156-0.6875-0.65625-0.15625-1.3203-0.23438-1.9844-0.23438-1.9688 0-3.4844 0.63281-4.5469 1.8906-1.0547 1.2617-1.5781 3.0703-1.5781 5.4219v11.016h-7.6562v-23.922h7.6562v3.9219c0.97656-1.5625 2.1016-2.7031 3.375-3.4219 1.2812-0.71875 2.8125-1.0781 4.5938-1.0781 0.25 0 0.52344 0.011719 0.82812 0.03125 0.30078 0.023438 0.73438 0.070312 1.2969 0.14062z"/>
  </symbol>
  <symbol id="d" overflow="visible">
   <path fill="transparent" d="m27.562-12.031v2.1875h-17.891c0.1875 1.793 0.83203 3.1367 1.9375 4.0312 1.1133 0.89844 2.6719 1.3438 4.6719 1.3438 1.6016 0 3.25-0.23438 4.9375-0.70312 1.6875-0.47656 3.4219-1.2031 5.2031-2.1719v5.8906c-1.8047 0.6875-3.6094 1.2031-5.4219 1.5469-1.8125 0.35156-3.6211 0.53125-5.4219 0.53125-4.3359 0-7.7031-1.0977-10.109-3.2969-2.3984-2.207-3.5938-5.2969-3.5938-9.2656 0-3.9062 1.1758-6.9727 3.5312-9.2031 2.3633-2.2383 5.6094-3.3594 9.7344-3.3594 3.7578 0 6.7695 1.1367 9.0312 3.4062 2.2578 2.2617 3.3906 5.2812 3.3906 9.0625zm-7.8594-2.5312c0-1.457-0.42969-2.6289-1.2812-3.5156-0.84375-0.89453-1.9492-1.3438-3.3125-1.3438-1.4922 0-2.6992 0.41797-3.625 1.25-0.91797 0.83594-1.4922 2.0391-1.7188 3.6094z"/>
  </symbol>
  <symbol id="b" overflow="visible">
   <path fill="transparent" d="m14.391-10.766c-1.5938 0-2.793 0.27344-3.5938 0.8125-0.80469 0.54297-1.2031 1.3398-1.2031 2.3906 0 0.96875 0.32031 1.7305 0.96875 2.2812 0.64453 0.54297 1.5469 0.8125 2.7031 0.8125 1.4375 0 2.6445-0.51562 3.625-1.5469 0.98828-1.0312 1.4844-2.3203 1.4844-3.875v-0.875zm11.688-2.8906v13.656h-7.7031v-3.5469c-1.0312 1.4492-2.1875 2.5078-3.4688 3.1719s-2.8398 1-4.6719 1c-2.4805 0-4.4961-0.72266-6.0469-2.1719-1.543-1.4453-2.3125-3.3203-2.3125-5.625 0-2.8125 0.96094-4.8672 2.8906-6.1719 1.9375-1.3125 4.9688-1.9688 9.0938-1.9688h4.5156v-0.60938c0-1.207-0.48047-2.0938-1.4375-2.6562-0.94922-0.5625-2.4375-0.84375-4.4688-0.84375-1.6367 0-3.1562 0.16797-4.5625 0.5-1.4062 0.32422-2.7188 0.8125-3.9375 1.4688v-5.8281c1.6445-0.40625 3.2891-0.70703 4.9375-0.90625 1.6562-0.20703 3.3047-0.3125 4.9531-0.3125 4.3203 0 7.4375 0.85547 9.3438 2.5625 1.9141 1.6992 2.875 4.4609 2.875 8.2812z"/>
  </symbol>
  <symbol id="c" overflow="visible">
   <path fill="transparent" d="m12.031-30.719v6.7969h7.875v5.4688h-7.875v10.141c0 1.1172 0.21875 1.8711 0.65625 2.2656 0.4375 0.38672 1.3125 0.57812 2.625 0.57812h3.9375v5.4688h-6.5625c-3.0234 0-5.1641-0.62891-6.4219-1.8906-1.2617-1.2578-1.8906-3.3984-1.8906-6.4219v-10.141h-3.7969v-5.4688h3.7969v-6.7969z"/>
  </symbol>
  <symbol id="a" overflow="visible">
   <path fill="transparent" d="m19.953-20.422v-12.812h7.6875v33.234h-7.6875v-3.4531c-1.0547 1.4062-2.2148 2.4375-3.4844 3.0938-1.2734 0.65625-2.7422 0.98438-4.4062 0.98438-2.9492 0-5.3711-1.1719-7.2656-3.5156-1.8867-2.3438-2.8281-5.3594-2.8281-9.0469s0.94141-6.7031 2.8281-9.0469c1.8945-2.3438 4.3164-3.5156 7.2656-3.5156 1.6562 0 3.1172 0.33594 4.3906 1 1.2812 0.65625 2.4453 1.6836 3.5 3.0781zm-5.0469 15.484c1.6445 0 2.8945-0.59766 3.75-1.7969 0.86328-1.1953 1.2969-2.9297 1.2969-5.2031 0-2.2812-0.43359-4.0195-1.2969-5.2188-0.85547-1.1953-2.1055-1.7969-3.75-1.7969-1.625 0-2.8711 0.60156-3.7344 1.7969-0.85547 1.1992-1.2812 2.9375-1.2812 5.2188 0 2.2734 0.42578 4.0078 1.2812 5.2031 0.86328 1.1992 2.1094 1.7969 3.7344 1.7969z"/>
  </symbol>
  <symbol id="h" overflow="visible">
   <path fill="transparent" d="m16.406-4.9375c1.6328 0 2.8828-0.59766 3.75-1.7969 0.86328-1.1953 1.2969-2.9297 1.2969-5.2031 0-2.2812-0.43359-4.0195-1.2969-5.2188-0.86719-1.1953-2.1172-1.7969-3.75-1.7969-1.6367 0-2.8906 0.60547-3.7656 1.8125-0.875 1.1992-1.3125 2.9336-1.3125 5.2031 0 2.2617 0.4375 3.9961 1.3125 5.2031 0.875 1.1992 2.1289 1.7969 3.7656 1.7969zm-5.0781-15.484c1.0508-1.3945 2.2188-2.4219 3.5-3.0781 1.2812-0.66406 2.7539-1 4.4219-1 2.9453 0 5.3672 1.1719 7.2656 3.5156 1.8945 2.3438 2.8438 5.3594 2.8438 9.0469s-0.94922 6.7031-2.8438 9.0469c-1.8984 2.3438-4.3203 3.5156-7.2656 3.5156-1.668 0-3.1406-0.33594-4.4219-1s-2.4492-1.6914-3.5-3.0781v3.4531h-7.6562v-33.234h7.6562z"/>
  </symbol>
  <symbol id="g" overflow="visible">
   <path fill="transparent" d="m0.53125-23.922h7.6562l6.4219 16.234 5.4688-16.234h7.6562l-10.062 26.188c-1.0117 2.6641-2.1953 4.5234-3.5469 5.5781-1.3438 1.0625-3.1211 1.5938-5.3281 1.5938h-4.4219v-5.0156h2.3906c1.3008 0 2.2422-0.21094 2.8281-0.625 0.59375-0.40625 1.0547-1.1484 1.3906-2.2188l0.20312-0.65625z"/>
  </symbol>
  <symbol id="f" overflow="visible">
   <path fill="transparent" d="m23.375-5.8125h-12.859l-2.0312 5.8125h-8.2656l11.812-31.891h9.7969l11.812 31.891h-8.2656zm-10.812-5.9219h8.7344l-4.3594-12.688z"/>
  </symbol>
  <symbol id="l" overflow="visible">
   <path fill="transparent" d="m19.422-33.234v5.0156h-4.2344c-1.0859 0-1.8398 0.19922-2.2656 0.59375-0.42969 0.38672-0.64062 1.0625-0.64062 2.0312v1.6719h6.5312v5.4688h-6.5312v18.453h-7.6406v-18.453h-3.8125v-5.4688h3.8125v-1.6719c0-2.6016 0.72266-4.5234 2.1719-5.7656 1.457-1.25 3.707-1.875 6.75-1.875z"/>
  </symbol>
  <symbol id="k" overflow="visible">
   <path fill="transparent" d="m4.0156-31.891h8.2188v19.109c0 2.6367 0.42969 4.5234 1.2969 5.6562 0.86328 1.1367 2.2695 1.7031 4.2188 1.7031 1.9688 0 3.3789-0.56641 4.2344-1.7031 0.86328-1.1328 1.2969-3.0195 1.2969-5.6562v-19.109h8.2344v19.109c0 4.5234-1.1367 7.8867-3.4062 10.094-2.2617 2.2109-5.7148 3.3125-10.359 3.3125-4.625 0-8.0742-1.1016-10.344-3.3125-2.2617-2.207-3.3906-5.5703-3.3906-10.094z"/>
  </symbol>
  <symbol id="j" overflow="visible">
   <path fill="transparent" d="m3.6719-23.922h7.6562v23.922h-7.6562zm0-9.3125h7.6562v6.2344h-7.6562z"/>
  </symbol>
  <symbol id="i" overflow="visible">
   <path fill="transparent" d="m27.734-14.562v14.562h-7.7031v-11.156c0-2.0625-0.046875-3.4844-0.14062-4.2656-0.085937-0.78125-0.24219-1.3594-0.46875-1.7344-0.30469-0.5-0.71094-0.88281-1.2188-1.1562-0.51172-0.28125-1.0938-0.42188-1.75-0.42188-1.5938 0-2.8516 0.61719-3.7656 1.8438-0.90625 1.2305-1.3594 2.9375-1.3594 5.125v11.766h-7.6562v-23.922h7.6562v3.5c1.1445-1.3945 2.3633-2.4219 3.6562-3.0781 1.3008-0.66406 2.7383-1 4.3125-1 2.7578 0 4.8516 0.85156 6.2812 2.5469 1.4375 1.6875 2.1562 4.1523 2.1562 7.3906z"/>
  </symbol>
 </defs>
 <g>
  <path fill="#fff" d="m184.54 178.24c0.125 6.7969 1.3359 13.531 3.5859 19.949v45.062c0.10156 16.062 5.8984 31.566 16.363 43.75 2.6172 3.2461 4.875 6.7695 6.7383 10.5l7.5234 14.699c8.0273 15.91 21.676 28.266 38.305 34.676 16.625 6.4062 35.039 6.4062 51.668 0 16.625-6.4102 30.277-18.766 38.301-34.676l7.6133-14.699c1.8672-3.5156 4.0977-6.832 6.6523-9.8867 10.496-12.168 16.297-27.684 16.359-43.75v-41.039c0.35547-0.8125 0.62109-1.6641 0.78906-2.5352 1.8516-10.109 2.0859-20.445 0.69922-30.625 0-3.5859-0.875-7.0859-1.4883-10.762v-3.1523c0.050781-0.52344 0.050781-1.0508 0-1.5742 0.61328 1.5742 1.2266 2.9766 1.6641 4.4609 0.4375 1.4883 1.4883 4.2891 2.2734 6.4766v-1.1367c-0.99219-4.9336-2.3359-9.7891-4.0234-14.527-0.22656-4.8359-0.90234-9.6367-2.0117-14.348 0.11328 0.27734 0.25781 0.54297 0.4375 0.78516 0-0.78906-0.4375-1.6641-0.78906-2.4492-0.35156-0.78906 0-1.0508-0.61328-1.4883-1.1094-3.0781-2.5781-6.0156-4.375-8.75-1.5664-2.3477-3.3828-4.5195-5.4219-6.4727-0.94141-0.87891-1.793-1.8438-2.5391-2.8906-2.7344-4.2969-6.1289-8.1367-10.062-11.375-2.4453-2.0625-5.1875-3.7422-8.1367-4.9844l-10.324-4.4609-2.625-1.1367v-0.003906c9.6992 0.90234 19.188 3.3867 28.086 7.3516l5.1641 2.2734-1.1367-0.875-5.5117-3.4141h-0.003906c-9.375-4.8281-19.594-7.8008-30.098-8.75-4.8125-0.20313-9.5781-1.0273-14.176-2.4492-1.5742-0.61328-3.3242-0.875-4.9883-1.3984h-1.3125c-1.9258 0-3.9375-0.875-5.8633-1.4883h22.051c0-0.4375 0-0.52344-0.52344-0.52344-9.4375-1.7031-19.047-2.2344-28.613-1.5781-3.3164 0.35156-6.6602 0.35156-9.9766 0l-4.375-0.4375 22.137-4.0234c-7.3867 0.050781-14.762 0.69141-22.047 1.9258-3.9375 0.61328-7.875 1.9258-11.812 2.4492-5.7734 0.78906-11.637 1.0508-17.5 1.4883 11.441-4.9102 23.629-7.8672 36.047-8.75h-7c-8.6875-0.17969-17.371 0.58203-25.898 2.2734-6.9258 1.5508-13.453 4.5312-19.164 8.75-1.1406 0.8125-2.3398 1.543-3.5859 2.1875 0.023438-0.17188 0.023438-0.35156 0-0.52344 2.5391-1.8359 5.1641-3.9375 7.875-5.6875 2.8281-1.707 5.75-3.2578 8.75-4.6367l8.75-3.5859v-0.003906c-5.9922 1.4414-11.805 3.5547-17.324 6.3008-8.4766 4.8516-16.324 10.73-23.363 17.5l-4.5508 3.7617c-0.52344 0.96094-1.1367 1.9258-1.75 2.8867-0.64062 1.5586-1.3711 3.0781-2.1875 4.5508-0.55469 0.61328-1.2461 1.0898-2.0117 1.4023-1.4883 0.61328-3.1484 0.96094-4.6367 1.6641l-1.1367 0.52344c-1.6914 0.875-3.3047 1.9023-4.8125 3.0625-4.5039 3.6875-7.5938 8.8203-8.75 14.523 1.8516-3.9414 4.5391-7.4336 7.875-10.238-1.0508 3.2383-1.75 6.125-2.7109 8.75h-0.003906c-0.38281 1.1719-0.91016 2.2891-1.5742 3.3242-1.9023 2.9688-3.4023 6.1758-4.4609 9.5391 1.4883-2.5391 2.8008-4.8125 4.1992-7v1.8359c-3.5234 14.188-5.082 28.789-4.6367 43.402zm22.137 36.488v-3.5859-0.003906c-0.042969-0.66797-0.042969-1.3398 0-2.0117v-20.648s1.5742-24.762 22.75-24.762c0 0 33.426 14.613 54.863 14.699 17.184-0.015624 33.973-5.1641 48.211-14.789 7.4023-0.21875 14.539 2.7734 19.57 8.207 5.0312 5.4336 7.4648 12.777 6.6797 20.145v26.773h-14.176c-2.8789-6.6055-8.1133-11.906-14.684-14.867-6.5703-2.9648-14.008-3.3789-20.867-1.1641-6.8594 2.2148-12.652 6.8984-16.25 13.145-2.8789-1.8984-6.2578-2.9062-9.7109-2.8867-3.4219 0-6.7695 1.0039-9.625 2.8867-3.6172-6.2422-9.418-10.918-16.281-13.129s-14.305-1.7969-20.883 1.1641c-6.5781 2.957-11.824 8.25-14.723 14.852h-14.875zm99.574 3.2344c0.61719 1.6133 2.125 2.7109 3.8516 2.8008h0.52344c-0.75781 1.2734-1.1797 2.7188-1.2266 4.1992 0 4.9805 4.0352 9.0156 9.0156 9.0156 4.9766 0 9.0117-4.0352 9.0117-9.0156-0.046875-1.4805-0.46875-2.9258-1.2266-4.1992h0.52734c1.7461-0.078125 3.2852-1.1758 3.9375-2.8008 4.2305 4.0898 6.1211 10.035 5.0352 15.816-1.0898 5.7852-5.0117 10.633-10.438 12.91-5.4297 2.2734-11.637 1.6641-16.52-1.6172-4.8867-3.2812-7.7969-8.7969-7.7422-14.684 0.019531-4.6758 1.9102-9.1523 5.25-12.426zm-70 0.52344v0.003906c0.75 1.3398 2.1406 2.1992 3.6758 2.2734h0.52344c-0.75781 1.2734-1.1797 2.7188-1.2227 4.1992 0 4.9805 4.0352 9.0156 9.0117 9.0156 4.9766 0 9.0117-4.0352 9.0117-9.0156-0.046875-1.4805-0.46875-2.9258-1.2266-4.1992h0.52734c1.8789-0.074219 3.5-1.3438 4.0234-3.1484 4.4531 3.9648 6.5781 9.9219 5.6445 15.809s-4.7969 10.891-10.258 13.285c-5.457 2.3945-11.758 1.8438-16.723-1.457-4.9609-3.3047-7.9023-8.9023-7.8008-14.863-0.089844-4.25 1.375-8.3867 4.1133-11.637zm-28.875 11.898h12.512v0.003907c0 10.379 5.5391 19.969 14.527 25.16 8.9883 5.1875 20.059 5.1875 29.047 0 8.9883-5.1914 14.527-14.781 14.527-25.16 0.35938-2.9375 2.8555-5.1484 5.8164-5.1484 2.9609 0 5.4609 2.2109 5.8203 5.1484 0 10.379 5.5352 19.969 14.523 25.16 8.9883 5.1875 20.062 5.1875 29.051 0 8.9883-5.1914 14.527-14.781 14.527-25.16h12.164l-0.003906 12.863c0.015625 11.734-4.2109 23.074-11.898 31.938-3.4766 4.168-6.4141 8.7539-8.75 13.648l-7.6133 14.961v0.003906c-5.9648 11.812-16.105 20.988-28.457 25.746-12.348 4.7539-26.023 4.7539-38.375 0-12.348-4.7578-22.488-13.934-28.457-25.746l-8.8359-15.051c-2.3945-4.8633-5.332-9.4414-8.75-13.648-7.6797-8.8281-11.879-20.152-11.812-31.852z"/>
  <path fill="#fff" d="m492.54 555.54h-419.56c2.8867-42.523 6.5625-100.27 7.6992-106.31 1.4492-10.953 5.7852-21.32 12.566-30.039s15.762-15.477 26.02-19.574c29.926-11.551 60.637-21.262 92.664-32.289l50.574 134.23 9.8867-89.773-12.949-13.387v-0.003906c-0.28906-0.32812-0.49609-0.71484-0.61328-1.1367-0.74609-4.5195 0.53516-9.1367 3.5-12.625 2.9688-3.4922 7.3203-5.4961 11.902-5.4883h18.289-0.003906c4.1328-0.023438 8.1016 1.5977 11.039 4.5 2.9375 2.9062 4.6016 6.8594 4.625 10.988 0.085938 0.87109 0.085938 1.7539 0 2.625-0.085937 0.41406-0.26562 0.80469-0.52734 1.1367l-12.16 12.863v2.625l8.75 87.5 50.574-133.09c35 11.988 73.938 17.5 106.31 39.289 19.336 13.211 24.148 33.949 26.25 55.562 0.17578 5.2461 2.625 54.07 5.1641 92.398z"/>
  <path fill="#fff" d="m511.18 54.863h-65.715c-5.8008 0-11.363 2.3047-15.465 6.4062-4.1055 4.1016-6.4102 9.668-6.4102 15.469v43.75c0 5.8008 2.3047 11.363 6.4102 15.469 4.1016 4.1016 9.6641 6.4062 15.465 6.4062h65.715c5.8008 0 11.363-2.3047 15.469-6.4062 4.1016-4.1055 6.4062-9.668 6.4062-15.469v-43.75c0-5.8008-2.3047-11.367-6.4062-15.469-4.1055-4.1016-9.668-6.4062-15.469-6.4062zm-15.312 48.648-26.25 13.039c-1.7031 0.84375-3.7227 0.75391-5.3398-0.24219-1.6172-1-2.6094-2.7578-2.625-4.6602v-26.25c0.015624-1.8984 1.0078-3.6602 2.625-4.6562 1.6172-0.99609 3.6367-1.0859 5.3398-0.24219l26.25 13.039c1.9961 0.85156 3.2891 2.8164 3.2891 4.9844 0 2.1719-1.293 4.1367-3.2891 4.9883z"/>
  <path fill="#fff" d="m454.04 217.44c-7.6992-0.046875-13.914-6.3008-13.914-14v-27.125c-0.30859-3.8945 1.0234-7.7383 3.6719-10.605 2.6523-2.8711 6.3789-4.5 10.285-4.5s7.6328 1.6289 10.281 4.5c2.6523 2.8672 3.9844 6.7109 3.6758 10.605v27.125c0 7.7305-6.2695 14-14 14z"/>
  <path fill="#fff" d="m551.25 175.96h-74.898v27.914h74.898c7.2812-0.57812 12.895-6.6523 12.895-13.957 0-7.3008-5.6133-13.379-12.895-13.957z"/>
  <path fill="#fff" d="m431.73 203.44v-27.477h-26.25c-7.2812 0.57812-12.895 6.6562-12.895 13.957 0 7.3047 5.6133 13.379 12.895 13.957h26.25z"/>
  <path fill="#fff" d="m609.52 4.4609h-262.5c-4.6406 0-9.0898 1.8438-12.371 5.1289-3.2852 3.2812-5.1289 7.7305-5.1289 12.371v48.039l8.2266 1.9258c9.2852 1.8828 18.289 4.9727 26.773 9.1875v-41.652h227.5v193.38h-193.02v35h210.52c4.6445 0 9.0938-1.8438 12.375-5.125s5.125-7.7305 5.125-12.375v-228.38c0-4.6406-1.8438-9.0898-5.125-12.371-3.2812-3.2852-7.7305-5.1289-12.375-5.1289z"/>
  <use x="70" y="691.25" xlink:href="#m"/>
  <use x="102.109375" y="691.25" xlink:href="#e"/>
  <use x="123.683594" y="691.25" xlink:href="#d"/>
  <use x="153.355469" y="691.25" xlink:href="#b"/>
  <use x="182.878906" y="691.25" xlink:href="#c"/>
  <use x="203.792969" y="691.25" xlink:href="#d"/>
  <use x="233.464844" y="691.25" xlink:href="#a"/>
  <use x="280.011719" y="691.25" xlink:href="#h"/>
  <use x="311.328125" y="691.25" xlink:href="#g"/>
  <use x="355.078125" y="691.25" xlink:href="#f"/>
  <use x="388.9375" y="691.25" xlink:href="#e"/>
  <use x="410.515625" y="691.25" xlink:href="#b"/>
  <use x="440.039062" y="691.25" xlink:href="#l"/>
  <use x="459.070312" y="691.25" xlink:href="#b"/>
  <use x="488.59375" y="691.25" xlink:href="#c"/>
  <use x="524.738281" y="691.25" xlink:href="#k"/>
  <use x="560.265625" y="691.25" xlink:href="#a"/>
  <use x="591.582031" y="691.25" xlink:href="#a"/>
  <use x="622.898438" y="691.25" xlink:href="#j"/>
  <use x="637.894531" y="691.25" xlink:href="#i"/>
 </g>
</svg>
